<svg viewBox="0 0 26 32" fill="#1D1D1B" xmlns="http://www.w3.org/2000/svg">
    <g clip-path="url(#clip0)">
        <path d="M25.6 28.4H0V24L2.6 22C2.4 19.1 2.4 13 4.5 8.69999C5.3 6.99999 6.3 5.89999 7.6 5.09999C9 4.19999 10.8 3.79999 12.7 3.79999C14.6 3.79999 16.3 4.19999 17.8 5.09999C19.1 5.89999 20.1 7.09999 20.9 8.69999C22.9 12.8 23 18.6 22.9 22L25.5 24V28.4H25.6ZM2.2 26.4H23.4V24.9L20.7 22.9V22.4C21 17.1 20.4 12.4 19 9.59999C18 7.69999 17 6.99999 16.7 6.79999C15.4 5.99999 13.9 5.79999 12.9 5.89999C11.3 5.79999 10 6.09999 9 6.79999C8.6 6.99999 7.6 7.59999 6.6 9.59999C4.5 13.8 4.7 20 4.9 22.4V22.9L2.2 24.9V26.4Z" />
        <path d="M12.8 5.8C11.2 5.8 9.90002 4.5 9.90002 2.9C9.90002 1.3 11.2 0 12.8 0C14.4 0 15.7 1.3 15.7 2.9C15.7 4.5 14.4 5.8 12.8 5.8ZM12.8 2C12.3 2 11.9 2.4 11.9 2.9C11.9 3.4 12.3 3.8 12.8 3.8C13.3 3.8 13.7 3.4 13.7 2.9C13.7 2.4 13.3 2 12.8 2Z" />
        <path d="M15.9 28.8C15.9 30.5 14.5 31.9 12.8 31.9C11.1 31.9 9.70001 30.5 9.70001 28.8C11.8 28.8 13.8 28.8 15.9 28.8Z" />
    </g>
</svg>
