<svg viewBox="0 0 31 31" fill="#2C2C2C" xmlns="http://www.w3.org/2000/svg">
<g clip-path="url(#clip0)">
<path d="M19.7 30.4H11.1L10.4 25.7C10 25.5 9.3 25.1 8.8 24.8L4.4 26.6L0 19.1L3.7 16.1C3.7 15.8 3.7 15.4 3.7 15.2C3.7 14.9 3.7 14.5 3.7 14.2L0 11.4L4.3 3.9L8.8 5.6C9.2 5.4 9.8 5 10.4 4.7L11 0H19.6L20.3 4.7L21.9 5.6L26.3 3.8L30.6 11.3L26.9 14.3C26.9 14.6 26.9 15 26.9 15.2C26.9 15.5 26.9 15.8 26.9 16.2L30.6 19.1L26.3 26.6L21.9 24.9C21.4 25.3 20.8 25.6 20.3 25.8L19.7 30.4ZM12.8 28.4H17.9L18.4 24.3L18.9 24.1C19.7 23.8 20.4 23.4 21.1 22.9L21.5 22.6L25.3 24.1L27.9 19.6L24.7 17.1L24.8 16.5C24.9 16.1 24.9 15.7 24.9 15.2C24.9 14.8 24.8 13.9 24.8 13.9V13.4L28 10.8L25.4 6.3L21.7 7.8L18.5 6L17.9 2H12.8L12.3 6.1L11.7 6.3C11 6.6 9.8 7.3 9.4 7.6L9 7.9L5.2 6.4L2.6 10.9L5.8 13.4V14C5.7 14.4 5.7 14.8 5.7 15.3C5.7 15.7 5.8 16.6 5.8 16.6V17.1L2.6 19.7L5.2 24.2L9 22.5L9.5 22.9C10 23.3 11.3 24 11.8 24.2L12.3 24.4L12.8 28.4ZM15.3 20.7C12.3 20.7 9.8 18.2 9.8 15.2C9.8 12.2 12.3 9.7 15.3 9.7C18.3 9.7 20.8 12.2 20.8 15.2C20.8 18.3 18.3 20.7 15.3 20.7ZM15.3 11.8C13.4 11.8 11.8 13.4 11.8 15.3C11.8 17.2 13.4 18.8 15.3 18.8C17.2 18.8 18.8 17.2 18.8 15.3C18.8 13.3 17.2 11.8 15.3 11.8Z" />
</g>
</svg>
