<svg viewBox="0 0 51 51" fill="black" xmlns="http://www.w3.org/2000/svg">
    <path d="M25.4999 25.5003C28.7567 25.5003 31.3968 22.8602 31.3968 19.6034C31.3968 16.3467 28.7567 13.7065 25.4999 13.7065C22.2431 13.7065 19.603 16.3467 19.603 19.6034C19.603 22.8602 22.2431 25.5003 25.4999 25.5003Z" />
    <path d="M25.5 1.59375C12.2974 1.59375 1.59375 12.2974 1.59375 25.5C1.59375 38.7026 12.2974 49.4062 25.5 49.4062C38.7026 49.4062 49.4062 38.7026 49.4062 25.5C49.4062 12.2974 38.7026 1.59375 25.5 1.59375ZM14.4633 43.0042L18.6357 31.875H32.3643L36.5367 43.0042C33.3365 45.0282 29.5593 46.2188 25.5 46.2188C21.4407 46.2188 17.6635 45.0282 14.4633 43.0042ZM39.1935 41.0072L34.5732 28.6875H16.4268L11.8065 41.0072C7.50975 37.2077 4.78125 31.6726 4.78125 25.5C4.78125 14.076 14.076 4.78125 25.5 4.78125C36.924 4.78125 46.2188 14.076 46.2188 25.5C46.2188 31.6726 43.4902 37.2077 39.1935 41.0072Z" />
</svg>
