<svg viewBox="0 0 32 32" fill="#2C2C2C" xmlns="http://www.w3.org/2000/svg">
    <path d="M25.373 3.882C22.784 1.294 19.392 0 16 0C12.608 0 9.21599 1.294 6.627 3.882C1.45099 9.058 1.45099 17.451 6.627 22.627L16 32L25.373 22.627C30.549 17.451 30.549 9.059 25.373 3.882ZM23.958 21.213L16 29.172L8.042 21.214C3.654 16.826 3.654 9.685 8.042 5.297C10.167 3.171 12.994 2 16 2C19.006 2 21.833 3.171 23.958 5.296C28.347 9.685 28.347 16.825 23.958 21.213Z" />
    <path d="M16 16.1C17.6569 16.1 19 14.7568 19 13.1C19 11.4431 17.6569 10.1 16 10.1C14.3431 10.1 13 11.4431 13 13.1C13 14.7568 14.3431 16.1 16 16.1Z" />
</svg>
