<svg viewBox="0 0 164 112" fill="white" xmlns="http://www.w3.org/2000/svg">
    <path d="M64.8203 40.4787L64.1316 40.0357C62.9704 39.2837 61.7463 38.6343 60.4733 38.0946C59.9389 37.8677 59.3974 37.6589 58.845 37.4716C57.5381 37.0244 56.1954 36.6906 54.8316 36.474C54.2542 36.384 53.666 36.312 53.085 36.2616C51.7077 36.1463 50.3233 36.1463 48.9461 36.2616C48.3614 36.312 47.7732 36.384 47.1994 36.474C45.8312 36.6835 44.4836 37.0112 43.1717 37.4536C42.6229 37.6409 42.0742 37.8497 41.5469 38.0766H41.5254C40.2539 38.617 39.0311 39.2665 37.8707 40.0177L37.1785 40.4607L33.5273 33.4922L34.1227 33.1321C35.3619 32.363 36.6512 31.6784 37.9819 31.0829L38.6275 30.7984L39.9581 33.3445C40.367 33.1789 40.783 33.0204 41.199 32.8692L40.5283 30.0674L41.1955 29.8513C42.5789 29.4096 43.9905 29.0619 45.4204 28.8105L46.1127 28.6881L46.7977 31.4827L47.0523 31.4467C47.411 31.3962 47.7697 31.3566 48.1283 31.3206V28.4504L48.8456 28.4036C49.5629 28.3568 50.309 28.3315 51.0299 28.3315C51.7508 28.3315 52.486 28.3568 53.2105 28.4036L53.9278 28.4504V31.3314C54.3654 31.3746 54.8065 31.4286 55.2477 31.4935L55.9327 28.6989L56.6249 28.8213C58.0598 29.0748 59.4761 29.4249 60.8643 29.8693L61.5314 30.0854L60.8427 32.88C61.2624 33.0312 61.6784 33.1897 62.0837 33.3553L63.4179 30.8092L64.0599 31.0937C65.3763 31.6859 66.6512 32.3669 67.876 33.1321L68.4714 33.4922L64.8203 40.4787ZM35.5071 34.0432L37.7452 38.3323C38.7693 37.7164 39.8346 37.1725 40.9336 36.7045H40.9587C41.5147 36.4668 42.0957 36.2472 42.6767 36.0455C44.0659 35.5724 45.4925 35.2182 46.9412 34.9867C47.5545 34.8895 48.1785 34.8139 48.799 34.7634C50.2598 34.641 51.7282 34.641 53.189 34.7634C53.8059 34.8139 54.4335 34.8895 55.0432 34.9867C56.4919 35.2182 57.9185 35.5724 59.3077 36.0455C59.8887 36.2472 60.4697 36.4668 61.0328 36.7081H61.0543C62.1525 37.1754 63.2167 37.7193 64.2392 38.3359L66.4808 34.0468C65.6882 33.5822 64.8705 33.1465 64.0384 32.7539L62.7185 35.2748L62.0801 34.9939L61.8004 34.8751C61.1046 34.5798 60.3872 34.3097 59.6484 34.0684L58.9849 33.8523L59.6663 31.0829C58.784 30.82 57.8731 30.5968 56.9836 30.4167L56.3057 33.1861L55.6171 33.0708C54.7707 32.9268 53.9063 32.8223 53.0527 32.7575L52.3569 32.7071V29.8549C51.4316 29.8153 50.517 29.8153 49.5952 29.8549V32.7071L48.8994 32.7575C48.3435 32.8007 47.7804 32.8584 47.2281 32.934C46.9304 32.9736 46.6291 33.0204 46.3314 33.0708L45.6464 33.1861L44.9649 30.4167C44.0647 30.5968 43.1717 30.82 42.2858 31.0829L42.9887 33.8523L42.3288 34.0684C41.6115 34.3097 40.8942 34.5798 40.1769 34.8751L39.8971 34.9939L39.273 35.2928L37.9532 32.7719C37.1247 33.1321 36.3069 33.5786 35.5071 34.0432Z" />
    <path d="M50.9904 83.6831C45.718 83.683 40.6088 81.8473 36.5332 78.4888C32.4577 75.1303 29.668 70.4567 28.6394 65.2644C27.6109 60.0721 28.4072 54.6824 30.8926 50.0135C33.3781 45.3447 37.3989 41.6856 42.27 39.6597C47.141 37.6338 52.561 37.3665 57.6063 38.9034C62.6517 40.4402 67.0102 43.686 69.9393 48.0879C72.8685 52.4897 74.187 57.7752 73.6701 63.0437C73.1533 68.3122 70.8331 73.2377 67.1049 76.9811C64.9936 79.1125 62.4822 80.8023 59.7162 81.9527C56.9501 83.1031 53.9843 83.6912 50.9904 83.6831ZM50.9904 39.5025C46.0842 39.5048 41.3305 41.2151 37.5393 44.342C33.7481 47.4689 31.1539 51.8189 30.1987 56.651C29.2435 61.4831 29.9863 66.4982 32.3007 70.842C34.6151 75.1858 38.3578 78.5895 42.8912 80.4731C47.4246 82.3568 52.4682 82.604 57.1627 81.1725C61.8572 79.741 65.9123 76.7195 68.6369 72.6226C71.3615 68.5258 72.5872 63.6071 72.1051 58.7046C71.6231 53.8021 69.463 49.2191 65.9931 45.7364C64.0272 43.7527 61.689 42.1803 59.1138 41.1102C56.5385 40.0402 53.7774 39.4937 50.9904 39.5025Z" />
    <path d="M46.5431 54.3148C45.8285 53.3569 45.4445 52.1912 45.4491 50.9944C45.4491 49.5216 46.0318 48.1091 47.069 47.0677C48.1062 46.0263 49.5129 45.4412 50.9797 45.4412C52.4464 45.4412 53.8531 46.0263 54.8903 47.0677C55.9275 48.1091 56.5102 49.5216 56.5102 50.9944C56.5148 52.1912 56.1308 53.3569 55.4163 54.3148L56.5209 55.1395C57.2856 54.1079 57.7496 52.8832 57.8612 51.6021C57.9727 50.321 57.7273 49.034 57.1525 47.8849C56.5777 46.7357 55.696 45.7697 54.6059 45.0946C53.5159 44.4195 52.2604 44.062 50.9797 44.062C49.6989 44.062 48.4434 44.4195 47.3534 45.0946C46.2633 45.7697 45.3817 46.7357 44.8068 47.8849C44.232 49.034 43.9866 50.321 44.0981 51.6021C44.2097 52.8832 44.6737 54.1079 45.4384 55.1395L46.5431 54.3148Z" />
    <path d="M50.9797 55.8884C51.6858 55.8874 52.3627 55.6051 52.8617 55.1034C53.3607 54.6017 53.6409 53.9216 53.6409 53.2126V52.9389H54.5412V51.1923C54.5412 50.7227 54.449 50.2577 54.2701 49.8238C54.0911 49.3899 53.8287 48.9957 53.498 48.6636C53.1673 48.3316 52.7747 48.0681 52.3426 47.8884C51.9105 47.7087 51.4474 47.6162 50.9797 47.6162C50.512 47.6162 50.0489 47.7087 49.6168 47.8884C49.1847 48.0681 48.7921 48.3316 48.4613 48.6636C48.1306 48.9957 47.8683 49.3899 47.6893 49.8238C47.5103 50.2577 47.4182 50.7227 47.4182 51.1923V52.9389H48.3184V53.209C48.318 53.5604 48.3864 53.9084 48.5199 54.2332C48.6534 54.5581 48.8493 54.8533 49.0964 55.1021C49.3435 55.3509 49.637 55.5484 49.9602 55.6833C50.2833 55.8182 50.6297 55.8879 50.9797 55.8884ZM48.7955 51.2067C48.7955 50.625 49.0256 50.0672 49.4352 49.6559C49.8448 49.2446 50.4004 49.0135 50.9797 49.0135C51.559 49.0135 52.1145 49.2446 52.5242 49.6559C52.9338 50.0672 53.1639 50.625 53.1639 51.2067V52.9389H52.5147V53.209C52.5147 53.6178 52.353 54.0098 52.0651 54.2989C51.7773 54.588 51.3868 54.7504 50.9797 54.7504C50.5726 54.7504 50.1821 54.588 49.8942 54.2989C49.6064 54.0098 49.4446 53.6178 49.4446 53.209V52.9389H48.7955V51.2067Z"/>
    <path d="M37.4726 61.8447H35.3745V63.9515H37.4726V61.8447Z" />
    <path d="M67.8688 60.2745V61.2793H69.0955L65.9608 64.4268V59.0249L66.818 59.8856L67.5353 59.1653L65.473 57.0946L63.3964 59.1797L64.1137 59.9L64.9816 59.0285V64.4304L61.8542 61.2901H63.0628V60.2853H60.1434V63.2348H61.1476V62.0031L63.6331 64.4988H58.8522L58.3393 64.0379L57.9268 60.2637C57.9268 60.0728 57.6937 58.1678 56.1336 57.3575L54.4837 56.7236L54.2578 56.6408L54.0318 56.7128C53.0372 56.9588 52.0144 57.0702 50.9904 57.0441C49.9676 57.0709 48.9458 56.9594 47.9526 56.7128L47.723 56.6372L45.9297 57.325L45.858 57.3575C44.2871 58.1678 44.0647 60.0728 44.0647 60.2637L43.6379 64.1747L43.2506 64.4988H41.5541C41.877 63.4547 41.8741 62.3363 41.5458 61.2939C41.2175 60.2514 40.5795 59.3348 39.7174 58.6669C38.8552 57.999 37.8103 57.6119 36.7228 57.5575C35.6353 57.5032 34.5572 57.7841 33.6333 58.3627C32.7093 58.9412 31.9838 59.7897 31.5539 60.7942C31.1241 61.7988 31.0106 62.9113 31.2286 63.9825C31.4466 65.0537 31.9857 66.0323 32.7736 66.787C33.5614 67.5417 34.5603 68.0363 35.6362 68.2045H35.7044C35.8478 68.2225 35.9913 68.237 36.1384 68.2478L43.2003 68.968C42.9506 71.3737 42.4799 73.7511 41.7944 76.0698L42.4472 76.2822L43.1035 76.4983C43.8274 74.0817 44.3198 71.6011 44.574 69.0905L46.2705 67.6499L46.0302 77.5283L46.6076 77.6363C49.5502 78.1525 52.5597 78.1525 55.5023 77.6363L56.0762 77.5283L55.8359 67.6607L57.5431 69.1013C57.7974 71.6084 58.2898 74.0853 59.0136 76.4983L60.3227 76.0698C59.6361 73.7538 59.1654 71.3787 58.9167 68.9752L65.968 68.3162V65.8853L69.8379 61.9995V63.2132H70.8385V60.2817L67.8688 60.2745ZM50.9796 58.4162C52.0649 58.4353 53.1486 58.324 54.2076 58.0849L55.5382 58.5927C56.442 59.0861 56.5675 60.3681 56.5711 60.3933L56.9011 63.4256H55.0145C54.2664 63.4339 53.531 63.2318 52.8913 62.8422C52.4119 62.4889 51.9834 62.0708 51.618 61.5998L48.9819 58.3118C49.645 58.3886 50.3122 58.4235 50.9796 58.4162ZM36.4253 66.8757H36.228L35.8192 66.8361C34.8112 66.6791 33.903 66.1362 33.285 65.3213C32.6671 64.5065 32.3875 63.483 32.5049 62.4656C32.6223 61.4482 33.1275 60.516 33.9146 59.8646C34.7017 59.2132 35.7095 58.8932 36.7265 58.9717C37.7435 59.0503 38.6907 59.5213 39.3693 60.2859C40.0479 61.0505 40.4052 62.0493 40.3663 63.0728C40.3273 64.0962 39.8951 65.0647 39.1603 65.7751C38.4255 66.4855 37.4453 66.8825 36.4253 66.8829V66.8757ZM46.2884 65.7953L44.0791 67.6788L39.5887 67.225C40.0867 66.8553 40.5174 66.4021 40.8619 65.8853H43.7312L46.3494 63.6741L46.2884 65.7953ZM45.1299 62.889L45.4025 60.4114V60.3933C45.4025 60.3933 45.5316 59.1005 46.4354 58.5927L47.1994 58.301L48.5515 59.9864L45.1299 62.889ZM50.9904 76.6388C49.7902 76.6368 48.5916 76.5489 47.4038 76.3759L47.4827 73.1347L47.7445 62.5037L49.4123 61.092L50.5206 62.4677C50.983 63.0715 51.5345 63.601 52.156 64.0379C52.8236 64.4473 53.5732 64.7031 54.351 64.7869L54.6344 76.3795C53.4273 76.5501 52.2094 76.6319 50.9904 76.6244V76.6388ZM64.5584 67.0485L57.9663 67.6679L54.5806 64.7869C54.7169 64.7869 54.8567 64.7869 55.0002 64.7869H57.127L58.325 65.8673H64.5584V67.0485Z"/>
    <path d="M86.6195 59.8031C86.6195 54.2067 90.1272 50.7783 94.4275 50.7783C98.7278 50.7783 102.239 54.2067 102.239 59.8031C102.239 65.594 98.7314 69.0692 94.4275 69.0692C90.1236 69.0692 86.6195 65.594 86.6195 59.8031ZM100.03 59.8031C100.03 54.9774 97.5514 52.8058 94.4275 52.8058C91.3036 52.8058 88.8288 54.9666 88.8288 59.8031C88.8288 64.6397 91.4004 67.0417 94.4275 67.0417C97.4546 67.0417 100.03 64.6289 100.03 59.8031Z" />
    <path d="M109.678 55.8198C112.03 55.8198 113.763 56.857 114.433 58.546L112.873 59.3419C112.346 58.2075 111.191 57.5809 109.645 57.5809C108.013 57.5809 106.93 58.2327 106.93 59.3167C106.93 60.2602 107.533 60.8148 108.903 61.1173L110.754 61.4774C113.515 62.032 114.839 63.2601 114.839 65.1904C114.839 67.4844 112.82 69.0509 109.839 69.0509C107.242 69.0509 105.395 68.039 104.481 66.1699L106.066 65.3272C106.715 66.6309 107.988 67.3295 109.792 67.3295C111.596 67.3295 112.845 66.5336 112.845 65.3272C112.845 64.2468 112.217 63.685 110.754 63.3717L108.566 62.9396C106.209 62.457 104.936 61.2506 104.936 59.4859C104.918 57.39 106.88 55.8198 109.678 55.8198Z" />
    <path d="M121.14 68.9721C118.988 68.9721 117.945 67.6468 117.945 65.5725V50.998H120.011V65.4752C120.011 66.5844 120.61 67.1138 121.621 67.1138C121.88 67.1167 122.138 67.0852 122.389 67.0202V68.8208C121.98 68.9187 121.561 68.9695 121.14 68.9721Z" />
    <path d="M124.142 62.4105C124.142 58.4275 126.739 55.8237 129.981 55.8237C133.224 55.8237 135.799 58.4275 135.799 62.4105C135.799 66.4619 133.177 69.0693 129.981 69.0693C126.786 69.0693 124.142 66.4619 124.142 62.4105ZM133.658 62.4105C133.658 59.1513 131.975 57.6316 129.981 57.6316C127.987 57.6316 126.284 59.1513 126.284 62.4105C126.284 65.6697 127.941 67.2614 129.981 67.2614C132.022 67.2614 133.658 65.6661 133.658 62.4105Z" />
</svg>