<svg viewBox="0 0 29 22" fill="#2C2C2C" xmlns="http://www.w3.org/2000/svg">
    <g clip-path="url(#clip0)">
        <path d="M9.06999 7.4C11.1134 7.4 12.77 5.74345 12.77 3.7C12.77 1.65655 11.1134 0 9.06999 0C7.02654 0 5.37 1.65655 5.37 3.7C5.37 5.74345 7.02654 7.4 9.06999 7.4Z" />
        <path d="M14.0699 10.4L16.6899 17.38H16.6799L14.0699 10.4ZM1.43994 17.37L4.06994 10.4L1.45994 17.37H1.43994Z" />
        <path d="M14.76 9.40002H3.37C2.25 12.38 1.12 15.37 0 18.35C0.71 18.36 1.43 18.37 2.14 18.38L4.76 11.4H13.37L15.99 18.38C16.7 18.37 17.42 18.36 18.13 18.36C17.01 15.37 15.88 12.39 14.76 9.40002Z" />
        <path d="M19.92 7.4C21.9634 7.4 23.62 5.74345 23.62 3.7C23.62 1.65655 21.9634 0 19.92 0C17.8765 0 16.22 1.65655 16.22 3.7C16.22 5.74345 17.8765 7.4 19.92 7.4Z" />
        <path d="M24.92 10.4L27.54 17.38H27.53L24.92 10.4Z" />
        <path d="M25.61 9.40002C22.7 9.40002 19.8 9.40002 16.89 9.40002C17.14 10.07 17.4 10.73 17.65 11.4C19.84 11.4 22.03 11.4 24.22 11.4L26.84 18.38C27.55 18.37 28.27 18.36 28.98 18.36C27.86 15.37 26.73 12.39 25.61 9.40002Z" />
    </g>
</svg>
