<svg viewBox="0 0 19 19" fill="#2C2C2C" xmlns="http://www.w3.org/2000/svg">
    <g clip-path="url(#clip0)">
        <path d="M9.06999 7.4C11.1134 7.4 12.77 5.74345 12.77 3.7C12.77 1.65655 11.1134 0 9.06999 0C7.02654 0 5.37 1.65655 5.37 3.7C5.37 5.74345 7.02654 7.4 9.06999 7.4Z" />
        <path d="M14.07 10.4L16.69 17.38H16.68L14.07 10.4ZM1.44 17.37L4.07 10.4L1.46 17.37H1.44Z" />
        <path d="M14.76 9.40002H3.37C2.25 12.38 1.12 15.37 0 18.35C0.71 18.36 1.43 18.37 2.14 18.38L4.76 11.4H13.37L15.99 18.38C16.7 18.37 17.42 18.36 18.13 18.36C17.01 15.37 15.88 12.39 14.76 9.40002Z" />
    </g>
</svg>
