<svg viewBox="0 0 32 32" fill="#2C2C2C" xmlns="http://www.w3.org/2000/svg">
    <path d="M26.835 7L25.847 1H6.153L5.153 7H2V14H4V9H5.013L5 31H9.781L10.781 27H21.22L22.219 31H27V9H28V14H30V7H26.835ZM7 20H25V25H7V20ZM7 18V9H25V18H7ZM24.153 3L24.819 7H7.181L7.848 3H24.153ZM8.219 29H7V27H8.719L8.219 29ZM23.781 29L23.28 27H25V29H23.781Z" />
    <path d="M9.5 24C10.3284 24 11 23.3284 11 22.5C11 21.6716 10.3284 21 9.5 21C8.67157 21 8 21.6716 8 22.5C8 23.3284 8.67157 24 9.5 24Z" />
    <path d="M22.5 24C23.3284 24 24 23.3284 24 22.5C24 21.6716 23.3284 21 22.5 21C21.6716 21 21 21.6716 21 22.5C21 23.3284 21.6716 24 22.5 24Z" />
</svg>
