<svg width="60" height="61" viewBox="0 0 60 61" fill="none" xmlns="http://www.w3.org/2000/svg">
<rect y="0.5" width="60" height="60" rx="30" fill="#43F8B6"/>
<g clip-path="url(#clip0)">
<path d="M30.0002 21.0622C28.5346 21.0622 27.3438 19.8474 27.3438 18.3524C27.3438 16.8573 28.5346 15.6426 30.0002 15.6426C31.4659 15.6426 32.6567 16.8573 32.6567 18.3524C32.6567 19.8474 31.4659 21.0622 30.0002 21.0622ZM30.0002 17.5114C29.5422 17.5114 29.1758 17.8852 29.1758 18.3524C29.1758 18.8196 29.5422 19.1933 30.0002 19.1933C30.4583 19.1933 30.8247 18.8196 30.8247 18.3524C30.8247 17.8852 30.4583 17.5114 30.0002 17.5114Z" fill="#2C2C2C"/>
<path d="M32.8395 42.4609C32.8395 44.0494 31.5571 45.3576 29.9999 45.3576C28.4426 45.3576 27.1602 44.0494 27.1602 42.4609C29.0838 42.4609 30.9159 42.4609 32.8395 42.4609Z" fill="#2C2C2C"/>
<path d="M30 21.0622C34.4886 21.0622 38.2443 25.0802 38.2443 29.9391V36.5734V37.5078L38.9771 38.0685L40.2595 39.0029V40.3111H19.8321V39.0029L20.0153 38.9094L21.0229 38.0685L21.7557 37.5078V36.5734V29.9391C21.8473 25.0802 25.5115 21.0622 30 21.0622ZM30 19.1934C24.5038 19.1934 19.9237 23.9589 19.9237 29.9391V36.5734C19.2824 37.0406 18.6412 37.6013 18 38.0685V42.1799H42V38.0685L39.9847 36.5734V29.9391C40.0763 24.0523 35.5878 19.1934 30 19.1934Z" fill="#2C2C2C"/>
</g>
<defs>
<clipPath id="clip0">
<rect width="24" height="29.7145" fill="white" transform="translate(18 15.6426)"/>
</clipPath>
</defs>
</svg>