<svg viewBox="0 0 32 32" fill="#2C2C2C" xmlns="http://www.w3.org/2000/svg">
<path fill-rule="evenodd" clip-rule="evenodd" d="M16 1C24.284 1 31 7.716 31 16C31 24.284 24.284 31 16 31C7.716 31 1 24.284 1 16C1 7.716 7.716 1 16 1ZM16 3C8.8203 3 3 8.8203 3 16C3 23.1797 8.8203 29 16 29C23.1797 29 29 23.1797 29 16C29 8.8203 23.1797 3 16 3ZM16 21C17.1429 21 18 21.881 18 23C18 24.119 17.1429 25 16 25C14.8571 25 14 24.119 14 23C14 21.881 14.8571 21 16 21ZM17.5 7L17.1371 19H14.8387L14.5 7H17.5Z" />
</svg>

