<svg viewBox="0 0 30 30" fill="#2C2C2C" xmlns="http://www.w3.org/2000/svg">
    <g clip-path="url(#clip0)">
        <path d="M23.6 3.79999H6.4L0 29.8H30L23.6 3.79999ZM2.4 27.5L7.7 5.99999H22.2L27.5 27.6H2.4V27.5Z" />
        <path d="M10.9 18.5L10.2 19.2V21.2H8.40002V12.3H10.2V17.2L12.4 14.9H14.5L12 17.3L14.5 21.2H12.4L10.9 18.5Z" />
        <path d="M20.9 16.2C21 16.5 21.1 16.7 21.1 17C21.1 17.4 21 17.8 20.8 18.1C20.6 18.4 20.3 18.7 19.8 18.9C19.4 19.1 18.9 19.2 18.2 19.2H18C17.4 19.2 17.1 19.4 17.1 19.7C17.1 19.8 17.1 19.9 17.2 20C17.3 20.1 17.4 20.1 17.5 20.1H20.2C20.8 20.1 21.2 20.2 21.6 20.5C21.9 20.8 22.1 21.2 22.1 21.6C22.1 22.3 21.8 22.8 21.2 23.2C20.6 23.6 19.7 23.8 18.5 23.8C17.4 23.8 16.5 23.7 15.9 23.4C15.3 23.1 14.9 22.7 14.8 22L16.6 21.8C16.7 22.1 16.9 22.3 17.2 22.4C17.5 22.5 17.9 22.6 18.6 22.6C19.2 22.6 19.6 22.5 20 22.4C20.4 22.3 20.5 22.1 20.5 21.9C20.5 21.8 20.5 21.7 20.4 21.6C20.3 21.5 20.2 21.5 20.1 21.5H17.1C16.6 21.5 16.2 21.4 15.9 21.1C15.6 20.8 15.5 20.5 15.5 20.2C15.5 19.9 15.6 19.6 15.9 19.3C16.2 19.1 16.5 18.9 16.9 18.8C16.5 18.6 16.1 18.3 15.9 18C15.7 17.7 15.6 17.3 15.6 16.9C15.6 16.5 15.7 16.1 15.9 15.8C16.1 15.4 16.4 15.2 16.9 14.9C17.4 14.6 17.8 14.6 18.4 14.6C18.8 14.6 19.2 14.7 19.5 14.8C19.8 14.9 20.1 15.1 20.3 15.3V14.7H22.3V16H20.9V16.2ZM19.1 17.7C19.3 17.5 19.4 17.2 19.4 16.9C19.4 16.6 19.3 16.3 19.1 16.1C18.9 15.9 18.6 15.8 18.3 15.8C17.9 15.8 17.7 15.9 17.5 16.1C17.3 16.3 17.2 16.6 17.2 16.9C17.2 17.2 17.3 17.4 17.5 17.7C17.7 17.9 18 18 18.3 18C18.7 18 19 17.9 19.1 17.7Z" />
        <path d="M15 5.8C13.4 5.8 12.1 4.5 12.1 2.9C12.1 1.3 13.4 0 15 0C16.6 0 17.9 1.3 17.9 2.9C17.9 4.5 16.6 5.8 15 5.8ZM15 2C14.5 2 14.1 2.4 14.1 2.9C14.1 3.4 14.5 3.8 15 3.8C15.5 3.8 15.9 3.4 15.9 2.9C15.9 2.4 15.5 2 15 2Z" />
    </g>
</svg>
